<svg xmlns="http://www.w3.org/2000/svg" xmlns:xlink="http://www.w3.org/1999/xlink" version="1.1" data-diagram-type="DESCRIPTION" style="width:950px;height:904px;background:#FFFFFF;" width="950px" height="904px" viewBox="0 0 950 904" zoomAndPan="magnify" preserveAspectRatio="none" contentStyleType="text/css"><?plantuml 1.2026.8?><defs/><g font-family="sans-serif" lengthAdjust="spacing"><g class="title" data-source-line="2"><text x="164.817" y="22.995" fill="#000" font-size="14" textLength="613.532" font-weight="700" font-family="'DejaVu Sans'">ExpenseFlow - Deployment diagram (production VPS; CI stack = test/staging)</text></g><!--cluster Developer laptop--><g class="cluster" data-qualified-name="Developer laptop" id="ent0001" data-source-line="4"><polygon points="425,53.297,435,43.297,617,43.297,617,123.267,607,133.267,425,133.267,425,53.297" fill="none" style="stroke:#181818;stroke-width:1;stroke-linejoin:miter;stroke-miterlimit:10;"/><line x1="607" y1="53.297" x2="617" y2="43.297" style="stroke:#181818;stroke-width:1;"/><line x1="425" y1="53.297" x2="607" y2="53.297" style="stroke:#181818;stroke-width:1;"/><line x1="607" y1="53.297" x2="607" y2="133.267" style="stroke:#181818;stroke-width:1;"/><text x="458.693" y="67.436" fill="#000" font-size="12" textLength="116.613" font-weight="700" font-family="'DejaVu Sans'">Developer laptop</text></g><!--cluster GitHub--><g class="cluster" data-qualified-name="GitHub" id="ent0003" data-source-line="7"><path d="M174.408,176.35 C183.933,160.232 195.079,160.525 204.998,175.968 C215.039,154.69 232.838,153.282 245.057,173.883 C255.442,159.262 271.384,162.376 278.568,177.491 C289.717,159.842 300.897,158.105 313.986,175.531 C327.084,155.673 341.975,157.652 355.151,175.446 C363.175,161.234 376.364,156.884 386.704,173.038 C394.597,151.321 413.263,154.712 424.758,169.258 C437.043,154.045 449.855,157.469 459.017,172.764 C471.666,154.28 489.168,156.911 499.517,175.291 C509.131,160.998 524.278,162.798 532.059,177.358 C540.456,156.092 554.985,158.746 568.375,172.123 C579.78,157.792 596.438,158.244 604.258,176.117 C614.558,157.249 633.433,156.191 643.633,176.218 C656.017,159.856 674.438,160.988 682,181.267 C685.541,182.293 686.616,184.674 684.13,187.696 C699.849,195.133 701.452,210.129 685.779,219.208 C702.999,225.477 703.858,239.971 691.477,251.468 C707.586,261.107 707.64,272.3 693.379,283.73 C711.145,295.817 709.837,310.083 693.867,322.594 C709.619,332.071 705.475,346.572 691.076,353.309 C704.449,374.363 699.788,386.329 675,391.187 C675.598,390.079 676.617,390.283 677.087,391.312 C667.192,406.38 657.569,409.856 645.345,393.678 C636.236,411.556 619.911,410.619 608.446,396.387 C594.869,414.888 580.665,412.298 571.37,392.267 C561.658,414.823 546.454,416.395 530.347,398.801 C519.238,411.178 507.481,412.147 500.491,394.68 C488.797,416.086 471.436,414.028 457.902,396.704 C448.676,412.543 438.097,413.101 427.354,398.211 C416.63,415.803 396.17,417.229 386.207,397.374 C375.277,414.391 358.772,412.253 349.722,395.351 C339.67,408.945 328.604,410.641 317.978,395.997 C306.592,414.17 292.305,412.856 282.765,394.231 C270.482,412.951 254.133,408.837 243.491,392.397 C233.418,414.026 221.512,416.149 205.951,397.513 C185.562,414.257 169.233,408.451 161,384.187 C166.236,383.143 168.175,386.124 167.201,390.855 C148.866,384.099 145.41,368.127 162.32,356.38 C144.078,347.001 148.67,329.948 163.232,321.423 C144.297,312.178 142.863,299.655 158.404,285.746 C142.994,274.322 142.793,260.205 161.236,251.588 C147.18,241.417 150.327,228.13 164.488,220.955 C143.942,206.173 147.76,185.981 168,174.267 C171.245,171.884 173.18,172.528 174.408,176.35" style="stroke:#181818;stroke-width:1;" fill="none"/><text x="398.063" y="190.406" fill="#000" font-size="12" textLength="46.875" font-weight="700" font-family="'DejaVu Sans'">GitHub</text></g><!--cluster VPS--><g class="cluster" data-qualified-name="VPS" id="ent0007" data-source-line="12"><polygon points="16,470.197,26,460.197,618,460.197,618,869.577,608,879.577,16,879.577,16,470.197" fill="none" style="stroke:#181818;stroke-width:1;stroke-linejoin:miter;stroke-miterlimit:10;"/><line x1="608" y1="470.197" x2="618" y2="460.197" style="stroke:#181818;stroke-width:1;"/><line x1="16" y1="470.197" x2="608" y2="470.197" style="stroke:#181818;stroke-width:1;"/><line x1="608" y1="470.197" x2="608" y2="879.577" style="stroke:#181818;stroke-width:1;"/><text x="161.301" y="484.336" fill="#000" font-size="12" textLength="303.398" font-weight="700" font-family="'DejaVu Sans'">DigitalOcean droplet (Ubuntu 24.04, Docker)</text></g><!--cluster Docker Compose project: prod--><g class="cluster" data-qualified-name="VPS.Docker Compose project. prod" id="ent0008" data-source-line="13"><polygon points="48,523.197,58,513.197,578,513.197,578,837.577,568,847.577,48,847.577,48,523.197" fill="none" style="stroke:#181818;stroke-width:1;stroke-linejoin:miter;stroke-miterlimit:10;"/><line x1="568" y1="523.197" x2="578" y2="513.197" style="stroke:#181818;stroke-width:1;"/><line x1="48" y1="523.197" x2="568" y2="523.197" style="stroke:#181818;stroke-width:1;"/><line x1="568" y1="523.197" x2="568" y2="847.577" style="stroke:#181818;stroke-width:1;"/><text x="206.224" y="537.336" fill="#000" font-size="12" textLength="205.553" font-weight="700" font-family="'DejaVu Sans'">Docker Compose project: prod</text></g><!--entity PUSH--><g class="entity" data-qualified-name="Developer laptop.PUSH" id="ent0002" data-source-line="5"><rect x="481.72" y="80.297" width="78.551" height="36.969" fill="#F1F1F1" style="stroke:#181818;stroke-width:0.5;" rx="5" ry="5"/><polygon points="543.271,85.297,543.271,99.297,555.271,99.297,555.271,91.297,549.271,85.297,543.271,85.297" fill="#F1F1F1" style="stroke:#181818;stroke-width:0.5;stroke-linejoin:miter;stroke-miterlimit:10;"/><line x1="549.271" y1="85.297" x2="549.271" y2="91.297" style="stroke:#181818;stroke-width:0.5;"/><line x1="555.271" y1="91.297" x2="549.271" y2="91.297" style="stroke:#181818;stroke-width:0.5;"/><text x="491.72" y="104.436" fill="#000" font-size="12" textLength="48.551" font-family="'DejaVu Sans'">git push</text></g><!--entity GA--><g class="entity" data-qualified-name="GitHub.GA" id="ent0004" data-source-line="8"><polygon points="456.28,208.267,466.28,198.267,585.723,198.267,585.723,232.236,575.723,242.236,456.28,242.236,456.28,208.267" fill="#F1F1F1" style="stroke:#181818;stroke-width:0.5;stroke-linejoin:miter;stroke-miterlimit:10;"/><line x1="575.723" y1="208.267" x2="585.723" y2="198.267" style="stroke:#181818;stroke-width:0.5;"/><line x1="456.28" y1="208.267" x2="575.723" y2="208.267" style="stroke:#181818;stroke-width:0.5;"/><line x1="575.723" y1="208.267" x2="575.723" y2="242.236" style="stroke:#181818;stroke-width:0.5;"/><text x="471.28" y="229.406" fill="#000" font-size="12" textLength="89.443" font-family="'DejaVu Sans'">GitHub Actions</text></g><!--entity CI--><g class="entity" data-qualified-name="GitHub.CI" id="ent0005" data-source-line="9"><polygon points="168.89,335.247,178.89,325.247,511.105,325.247,511.105,373.184,501.105,383.184,168.89,383.184,168.89,335.247" fill="#F1F1F1" style="stroke:#181818;stroke-width:0.5;stroke-linejoin:miter;stroke-miterlimit:10;"/><line x1="501.105" y1="335.247" x2="511.105" y2="325.247" style="stroke:#181818;stroke-width:0.5;"/><line x1="168.89" y1="335.247" x2="501.105" y2="335.247" style="stroke:#181818;stroke-width:0.5;"/><line x1="501.105" y1="335.247" x2="501.105" y2="383.184" style="stroke:#181818;stroke-width:0.5;"/><text x="183.89" y="356.386" fill="#000" font-size="12" textLength="302.215" font-family="'DejaVu Sans'">Actions runner: ephemeral Docker Compose stack</text><text x="183.89" y="370.354" fill="#000" font-size="12" textLength="210.803" font-family="'DejaVu Sans'">(test + staging: Newman, Cypress)</text></g><!--entity GHCR--><g class="entity" data-qualified-name="GitHub.GHCR" id="ent0006" data-source-line="10"><path d="M546.22,335.747 C546.22,325.747 609.997,325.747 609.997,325.747 C609.997,325.747 673.775,325.747 673.775,335.747 L673.775,372.684 C673.775,382.684 609.997,382.684 609.997,382.684 C609.997,382.684 546.22,382.684 546.22,372.684 L546.22,335.747" style="stroke:#181818;stroke-width:0.5;" fill="#F1F1F1"/><path d="M546.22,335.747 C546.22,345.747 609.997,345.747 609.997,345.747 C609.997,345.747 673.775,345.747 673.775,335.747" style="stroke:#181818;stroke-width:0.5;" fill="none"/><text x="556.22" y="360.886" fill="#000" font-size="12" textLength="35.039" font-family="'DejaVu Sans'">GHCR</text><text x="556.22" y="374.854" fill="#000" font-size="12" textLength="107.555" font-family="'DejaVu Sans'">(api, web images)</text></g><!--entity WEB--><g class="entity" data-qualified-name="VPS.Docker Compose project. prod.WEB" id="ent0009" data-source-line="14"><polygon points="439.91,560.197,449.91,550.197,562.099,550.197,562.099,598.134,552.099,608.134,439.91,608.134,439.91,560.197" fill="#F1F1F1" style="stroke:#181818;stroke-width:0.5;stroke-linejoin:miter;stroke-miterlimit:10;"/><line x1="552.099" y1="560.197" x2="562.099" y2="550.197" style="stroke:#181818;stroke-width:0.5;"/><line x1="439.91" y1="560.197" x2="552.099" y2="560.197" style="stroke:#181818;stroke-width:0.5;"/><line x1="552.099" y1="560.197" x2="552.099" y2="608.134" style="stroke:#181818;stroke-width:0.5;"/><text x="454.91" y="581.336" fill="#000" font-size="12" textLength="82.189" font-family="'DejaVu Sans'">web: Caddy 2</text><text x="454.91" y="595.304" fill="#000" font-size="12" textLength="50.074" font-family="'DejaVu Sans'">:80 :443</text></g><!--entity API--><g class="entity" data-qualified-name="VPS.Docker Compose project. prod.API" id="ent0010" data-source-line="15"><polygon points="196.66,693.137,206.66,683.137,399.346,683.137,399.346,717.106,389.346,727.106,196.66,727.106,196.66,693.137" fill="#F1F1F1" style="stroke:#181818;stroke-width:0.5;stroke-linejoin:miter;stroke-miterlimit:10;"/><line x1="389.346" y1="693.137" x2="399.346" y2="683.137" style="stroke:#181818;stroke-width:0.5;"/><line x1="196.66" y1="693.137" x2="389.346" y2="693.137" style="stroke:#181818;stroke-width:0.5;"/><line x1="389.346" y1="693.137" x2="389.346" y2="727.106" style="stroke:#181818;stroke-width:0.5;"/><text x="211.66" y="714.276" fill="#000" font-size="12" textLength="162.686" font-family="'DejaVu Sans'">api x N: gunicorn + Django</text></g><!--entity WK--><g class="entity" data-qualified-name="VPS.Docker Compose project. prod.WK" id="ent0011" data-source-line="16"><polygon points="434.14,693.137,444.14,683.137,561.867,683.137,561.867,717.106,551.867,727.106,434.14,727.106,434.14,693.137" fill="#F1F1F1" style="stroke:#181818;stroke-width:0.5;stroke-linejoin:miter;stroke-miterlimit:10;"/><line x1="551.867" y1="693.137" x2="561.867" y2="683.137" style="stroke:#181818;stroke-width:0.5;"/><line x1="434.14" y1="693.137" x2="551.867" y2="693.137" style="stroke:#181818;stroke-width:0.5;"/><line x1="551.867" y1="693.137" x2="551.867" y2="727.106" style="stroke:#181818;stroke-width:0.5;"/><text x="449.14" y="714.276" fill="#000" font-size="12" textLength="87.727" font-family="'DejaVu Sans'">worker: Celery</text></g><!--entity PG--><g class="entity" data-qualified-name="VPS.Docker Compose project. prod.PG" id="ent0012" data-source-line="17"><path d="M302.29,798.607 C302.29,788.607 347.997,788.607 347.997,788.607 C347.997,788.607 393.704,788.607 393.704,798.607 L393.704,821.576 C393.704,831.576 347.997,831.576 347.997,831.576 C347.997,831.576 302.29,831.576 302.29,821.576 L302.29,798.607" style="stroke:#181818;stroke-width:0.5;" fill="#F1F1F1"/><path d="M302.29,798.607 C302.29,808.607 347.997,808.607 347.997,808.607 C347.997,808.607 393.704,808.607 393.704,798.607" style="stroke:#181818;stroke-width:0.5;" fill="none"/><text x="312.29" y="823.746" fill="#000" font-size="12" textLength="71.414" font-family="'DejaVu Sans'">postgres:16</text></g><!--entity MG--><g class="entity" data-qualified-name="VPS.Docker Compose project. prod.MG" id="ent0013" data-source-line="18"><path d="M194.36,798.607 C194.36,788.607 230.997,788.607 230.997,788.607 C230.997,788.607 267.633,788.607 267.633,798.607 L267.633,821.576 C267.633,831.576 230.997,831.576 230.997,831.576 C230.997,831.576 194.36,831.576 194.36,821.576 L194.36,798.607" style="stroke:#181818;stroke-width:0.5;" fill="#F1F1F1"/><path d="M194.36,798.607 C194.36,808.607 230.997,808.607 230.997,808.607 C230.997,808.607 267.633,808.607 267.633,798.607" style="stroke:#181818;stroke-width:0.5;" fill="none"/><text x="204.36" y="823.746" fill="#000" font-size="12" textLength="53.273" font-family="'DejaVu Sans'">mongo:7</text></g><!--entity RD--><g class="entity" data-qualified-name="VPS.Docker Compose project. prod.RD" id="ent0014" data-source-line="19"><path d="M450.4,798.607 C450.4,788.607 480.999,788.607 480.999,788.607 C480.999,788.607 511.597,788.607 511.597,798.607 L511.597,821.576 C511.597,831.576 480.999,831.576 480.999,831.576 C480.999,831.576 450.4,831.576 450.4,821.576 L450.4,798.607" style="stroke:#181818;stroke-width:0.5;" fill="#F1F1F1"/><path d="M450.4,798.607 C450.4,808.607 480.999,808.607 480.999,808.607 C480.999,808.607 511.597,808.607 511.597,798.607" style="stroke:#181818;stroke-width:0.5;" fill="none"/><text x="460.4" y="823.746" fill="#000" font-size="12" textLength="41.197" font-family="'DejaVu Sans'">redis:7</text></g><!--entity MON--><g class="entity" data-qualified-name="VPS.Docker Compose project. prod.MON" id="ent0015" data-source-line="20"><polygon points="63.68,567.187,73.68,557.187,240.321,557.187,240.321,591.156,230.321,601.156,63.68,601.156,63.68,567.187" fill="#F1F1F1" style="stroke:#181818;stroke-width:0.5;stroke-linejoin:miter;stroke-miterlimit:10;"/><line x1="230.321" y1="567.187" x2="240.321" y2="557.187" style="stroke:#181818;stroke-width:0.5;"/><line x1="63.68" y1="567.187" x2="230.321" y2="567.187" style="stroke:#181818;stroke-width:0.5;"/><line x1="230.321" y1="567.187" x2="230.321" y2="601.156" style="stroke:#181818;stroke-width:0.5;"/><text x="78.68" y="588.326" fill="#000" font-size="12" textLength="136.641" font-family="'DejaVu Sans'">prometheus + grafana</text></g><!--entity LOKI--><g class="entity" data-qualified-name="VPS.Docker Compose project. prod.LOKI" id="ent0016" data-source-line="21"><polygon points="275.52,567.187,285.52,557.187,404.471,557.187,404.471,591.156,394.471,601.156,275.52,601.156,275.52,567.187" fill="#F1F1F1" style="stroke:#181818;stroke-width:0.5;stroke-linejoin:miter;stroke-miterlimit:10;"/><line x1="394.471" y1="567.187" x2="404.471" y2="557.187" style="stroke:#181818;stroke-width:0.5;"/><line x1="275.52" y1="567.187" x2="394.471" y2="567.187" style="stroke:#181818;stroke-width:0.5;"/><line x1="394.471" y1="567.187" x2="394.471" y2="601.156" style="stroke:#181818;stroke-width:0.5;"/><text x="290.52" y="588.326" fill="#000" font-size="12" textLength="88.951" font-family="'DejaVu Sans'">loki + promtail</text></g><!--entity USERS--><g class="entity" data-qualified-name="USERS" id="ent0017" data-source-line="24"><ellipse cx="117.002" cy="325.737" rx="8" ry="8" fill="#F1F1F1" style="stroke:#181818;stroke-width:0.5;"/><path d="M117.002,333.737 L117.002,360.737 M104.002,341.737 L130.002,341.737 M117.002,360.737 L104.002,375.737 M117.002,360.737 L130.002,375.737" style="stroke:#181818;stroke-width:0.5;" fill="none"/><text x="100.2" y="388.376" fill="#000" font-size="12" textLength="33.604" font-family="'DejaVu Sans'">Users</text></g><!--entity LE--><g class="entity" data-qualified-name="LE" id="ent0018" data-source-line="25"><path d="M649.95,691.249 C653.614,685.316 659.956,685.299 663.473,691.414 C665.086,686.017 668.285,684.013 673.174,688.041 C676.035,682.316 681.092,680.117 685.558,686.383 C687.996,680.501 692.193,680.078 696.138,684.892 C700.632,679.235 706.512,680.534 709.487,686.618 C714.374,681.735 718.278,682.805 720.488,689.223 C724.091,684.545 729.483,684.052 732.06,690.308 C736.37,685.052 741.925,686.433 743.471,692.981 C751.548,696.424 751.709,700.798 745.793,706.623 C751.998,713.209 749.484,717.463 742.153,720.498 C738.865,725.277 734.558,724.526 731.863,719.852 C729.559,726.783 723.89,727.351 719.469,721.985 C716.35,728.287 711.383,727.181 707.668,722.634 C705.323,727.542 700.576,728.297 697.806,723.046 C693.711,727.604 688.799,728.15 686.344,721.385 C682.114,727.374 677.806,727.871 673.66,721.301 C669.608,726.656 665.093,725.996 661.624,720.645 C657.459,725.227 652.92,724.575 649.907,719.278 C643.366,716.812 640.605,710.208 647.158,705.187 C641.928,700.002 643.036,694.001 649.95,691.249" style="stroke:#181818;stroke-width:0.5;" fill="#F1F1F1"/><text x="656.86" y="709.276" fill="#000" font-size="12" textLength="78.281" font-family="'DejaVu Sans'">Let's Encrypt</text></g><!--entity SMTP--><g class="entity" data-qualified-name="SMTP" id="ent0019" data-source-line="26"><path d="M651.653,796.166 C655.108,788.488 661.01,788.854 665.373,795.283 C668.516,787.193 672.941,785.966 679.31,792.129 C683.16,785.496 689.022,784.959 694.217,790.481 C698.584,783.193 705.907,783.088 709.371,791.361 C715.181,786.818 720.029,786.868 722.502,794.857 C727.926,789.418 734.179,789.533 737.32,797.4 C745.75,797.495 747.566,804.687 743.909,810.749 C747.914,818.388 745.674,823.952 736.709,825.073 C734.07,834.024 728.104,833.298 722.243,828.451 C719.12,836.351 713.705,837.271 708.535,830.343 C706.227,838.414 700.428,838.796 695.064,833.4 C689.54,840.374 682.871,837.244 680.385,830.215 C674.308,837.351 669.253,836.397 665.916,827.71 C659.988,832.887 655.114,832.517 652.177,824.577 C643.564,823.865 641.788,818.498 645.069,811.38 C640.133,804.317 642.96,797.331 651.653,796.166" style="stroke:#181818;stroke-width:0.5;" fill="#F1F1F1"/><text x="657.33" y="814.246" fill="#000" font-size="12" textLength="71.344" font-family="'DejaVu Sans'">Brevo SMTP</text></g><!--link PUSH to GA--><g class="link" data-entity-1="ent0002" data-entity-2="ent0004" id="lnk20" data-source-line="28" data-link-type="dependency"><path d="M521,117.667 C521,139.147 521,170.137 521,193.007" style="stroke:#555;stroke-width:1;" fill="none" id="PUSH-to-GA"/><polygon points="521,198.007,525,189.007,521,193.007,517,189.007,521,198.007" fill="#555" style="stroke:#555;stroke-width:1;stroke-linejoin:miter;stroke-miterlimit:10;"/></g><!--link GA to GHCR--><g class="link" data-entity-1="ent0004" data-entity-2="ent0006" id="lnk21" data-source-line="29" data-link-type="dependency"><path d="M535.21,242.687 C543.8,255.607 554.99,272.397 565,287.237 C573.45,299.767 580.037,309.46 588.067,321.2" style="stroke:#555;stroke-width:1;" fill="none" id="GA-to-GHCR"/><polygon points="590.89,325.327,589.111,315.64,588.067,321.2,582.507,320.157,590.89,325.327" fill="#555" style="stroke:#555;stroke-width:1;stroke-linejoin:miter;stroke-miterlimit:10;"/><text x="566" y="284.376" fill="#000" font-size="12" textLength="151.658" font-family="'DejaVu Sans'">build + push (tag = SHA)</text></g><!--link GA to CI--><g class="link" data-entity-1="ent0004" data-entity-2="ent0005" id="lnk22" data-source-line="30" data-link-type="dependency"><path d="M480.57,242.527 C465.26,251.137 447.94,261.557 433,272.237 C410.53,288.297 390.779,305.351 373.049,321.671" style="stroke:#555;stroke-width:1;" fill="none" id="GA-to-CI"/><polygon points="369.37,325.057,378.701,321.905,373.049,321.671,373.283,316.019,369.37,325.057" fill="#555" style="stroke:#555;stroke-width:1;stroke-linejoin:miter;stroke-miterlimit:10;"/><text x="434" y="284.376" fill="#000" font-size="12" textLength="112.576" font-family="'DejaVu Sans'">every PR and push</text></g><!--link GA to VPS--><g class="link" data-entity-1="ent0004" data-entity-2="ent0007" id="lnk23" data-source-line="31" data-link-type="dependency"><path d="M586.02,229.077 C638.16,236.847 705.28,250.747 722,272.237 C765.76,328.482 739.313,403.472 701.168,465.129 C682.095,495.958 660.098,523.454 642.491,543.607 C633.687,553.683 625.98,561.924 620.286,567.827 C619.574,568.565 622.383,565.686 621.736,566.35" style="stroke:#555;stroke-width:1;" fill="none" id="GA-to-VPS"/><polygon points="618.246,569.931,627.393,566.278,621.736,566.35,621.664,560.694,618.246,569.931" fill="#555" style="stroke:#555;stroke-width:1;stroke-linejoin:miter;stroke-miterlimit:10;"/><text x="745.7" y="358.856" fill="#000" font-size="12" textLength="188.467" font-family="'DejaVu Sans'">SSH deploy (compose pull / up)</text></g><!--link GHCR to VPS--><g class="link" data-entity-1="ent0006" data-entity-2="ent0007" id="lnk24" data-source-line="32" data-link-type="dependency"><path d="M610,383.007 C610,397.714 610,417.002 610,437.726 C610,442.907 610,448.178 610,453.489 C610,454.817 610,456.147 610,457.479 C610,458.145 610,453.812 610,454.478" style="stroke:#555;stroke-width:1;" fill="none" id="GHCR-to-VPS"/><polygon points="610,459.478,614,450.478,610,454.478,606,450.478,610,459.478" fill="#555" style="stroke:#555;stroke-width:1;stroke-linejoin:miter;stroke-miterlimit:10;"/><text x="611" y="433.336" fill="#000" font-size="12" textLength="66.527" font-family="'DejaVu Sans'">docker pull</text></g><!--link USERS to WEB--><g class="link" data-entity-1="ent0017" data-entity-2="ent0009" id="lnk25" data-source-line="33" data-link-type="dependency"><path d="M134.24,388.887 C139.36,395.957 145.61,402.647 153,407.187 C255.83,470.357 321.54,377.327 422,444.197 C459.53,469.187 480.08,513.864 490.96,545.194" style="stroke:#555;stroke-width:1;" fill="none" id="USERS-to-WEB"/><polygon points="492.6,549.917,493.426,540.103,490.96,545.194,485.869,542.727,492.6,549.917" fill="#555" style="stroke:#555;stroke-width:1;stroke-linejoin:miter;stroke-miterlimit:10;"/><text x="405.28" y="433.336" fill="#000" font-size="12" textLength="38.537" font-family="'DejaVu Sans'">HTTPS</text></g><!--link WEB to API--><g class="link" data-entity-1="ent0009" data-entity-2="ent0010" id="lnk26" data-source-line="34" data-link-type="dependency"><path d="M503.7,608.567 C503.56,623.537 500.68,641.207 490,653.137 C483.13,660.817 445.696,671.285 402.556,681.495" style="stroke:#555;stroke-width:1;" fill="none" id="WEB-to-API"/><polygon points="397.69,682.647,407.369,684.467,402.556,681.495,405.527,676.682,397.69,682.647" fill="#555" style="stroke:#555;stroke-width:1;stroke-linejoin:miter;stroke-miterlimit:10;"/></g><!--link WEB to LE--><g class="link" data-entity-1="ent0009" data-entity-2="ent0018" id="lnk27" data-source-line="35" data-link-type="dependency"><path d="M545.74,608.607 C581.27,631.197 625.96,659.605 658.2,680.095" style="stroke:#555;stroke-width:1;stroke-dasharray:7,7;" fill="none" id="WEB-to-LE"/><polygon points="662.42,682.777,656.97,674.574,658.2,680.095,652.679,681.325,662.42,682.777" fill="#555" style="stroke:#555;stroke-width:1;stroke-linejoin:miter;stroke-miterlimit:10;"/><text x="611.18" y="650.276" fill="#000" font-size="12" textLength="66.803" font-family="'DejaVu Sans'">certificates</text></g><!--link API to PG--><g class="link" data-entity-1="ent0010" data-entity-2="ent0012" id="lnk28" data-source-line="36" data-link-type="dependency"><path d="M308.36,727.457 C317,745.247 327.057,765.959 335.637,783.639" style="stroke:#555;stroke-width:1;" fill="none" id="API-to-PG"/><polygon points="337.82,788.137,337.489,778.294,335.637,783.639,330.292,781.786,337.82,788.137" fill="#555" style="stroke:#555;stroke-width:1;stroke-linejoin:miter;stroke-miterlimit:10;"/></g><!--link API to MG--><g class="link" data-entity-1="ent0010" data-entity-2="ent0013" id="lnk29" data-source-line="37" data-link-type="dependency"><path d="M284.12,727.457 C272.54,745.247 258.866,766.266 247.366,783.946" style="stroke:#555;stroke-width:1;" fill="none" id="API-to-MG"/><polygon points="244.64,788.137,252.9,782.773,247.366,783.946,246.194,778.411,244.64,788.137" fill="#555" style="stroke:#555;stroke-width:1;stroke-linejoin:miter;stroke-miterlimit:10;"/></g><!--link API to RD--><g class="link" data-entity-1="ent0010" data-entity-2="ent0014" id="lnk30" data-source-line="38" data-link-type="dependency"><path d="M335.92,727.457 C369.73,746.487 414.262,771.546 445.752,789.256" style="stroke:#555;stroke-width:1;" fill="none" id="API-to-RD"/><polygon points="450.11,791.707,444.226,783.809,445.752,789.256,440.305,790.782,450.11,791.707" fill="#555" style="stroke:#555;stroke-width:1;stroke-linejoin:miter;stroke-miterlimit:10;"/></g><!--link WK to RD--><g class="link" data-entity-1="ent0011" data-entity-2="ent0014" id="lnk31" data-source-line="39" data-link-type="dependency"><path d="M494.48,727.457 C491.54,745.247 488.195,765.524 485.275,783.204" style="stroke:#555;stroke-width:1;" fill="none" id="WK-to-RD"/><polygon points="484.46,788.137,489.873,779.909,485.275,783.204,481.98,778.605,484.46,788.137" fill="#555" style="stroke:#555;stroke-width:1;stroke-linejoin:miter;stroke-miterlimit:10;"/></g><!--link WK to SMTP--><g class="link" data-entity-1="ent0011" data-entity-2="ent0019" id="lnk32" data-source-line="40" data-link-type="dependency"><path d="M538.4,727.457 C571.87,745.127 614.779,767.781 648.229,785.451" style="stroke:#555;stroke-width:1;" fill="none" id="WK-to-SMTP"/><polygon points="652.65,787.787,646.56,780.046,648.229,785.451,642.824,787.12,652.65,787.787" fill="#555" style="stroke:#555;stroke-width:1;stroke-linejoin:miter;stroke-miterlimit:10;"/></g><!--link MON to API--><g class="link" data-entity-1="ent0015" data-entity-2="ent0010" id="lnk33" data-source-line="41" data-link-type="dependency"><path d="M177.1,601.477 C203.84,624.187 242.128,656.691 268.928,679.441" style="stroke:#555;stroke-width:1;" fill="none" id="MON-to-API"/><polygon points="272.74,682.677,268.467,673.803,268.928,679.441,263.29,679.902,272.74,682.677" fill="#555" style="stroke:#555;stroke-width:1;stroke-linejoin:miter;stroke-miterlimit:10;"/><text x="234.74" y="650.276" fill="#000" font-size="12" textLength="48.938" font-family="'DejaVu Sans'">/metrics</text></g><!--link LOKI to API--><g class="link" data-entity-1="ent0016" data-entity-2="ent0010" id="lnk34" data-source-line="42" data-link-type="dependency"><path d="M321.52,601.497 C313.69,611.847 305.37,624.897 301,638.137 C296.26,652.517 295.428,664.61 295.908,677.8" style="stroke:#555;stroke-width:1;stroke-dasharray:7,7;" fill="none" id="LOKI-to-API"/><polygon points="296.09,682.797,299.76,673.657,295.908,677.8,291.765,673.948,296.09,682.797" fill="#555" style="stroke:#555;stroke-width:1;stroke-linejoin:miter;stroke-miterlimit:10;"/><text x="302" y="650.276" fill="#000" font-size="12" textLength="183.885" font-family="'DejaVu Sans'">container logs (Docker socket)</text></g><?plantuml-src NLDTRzim37pth-3oiWHhqwuBji732gHEbXJz2k9cVIamA3Bhgf4bGPBR1aF_-oZPNeCycTQTo2Dv-Y0KbtM1yCVvhSIXg2kPUE4bmlJLe7BuI-eNE8G96gct5IeFXM2bPHNqZTL5pRtG2dulyX-GdOFpZ6_W9tXq_eX-Ig7AGP8eJILw4tn6gGrQaCnuRNhmDm5Wrei7nZtqIk71rEwn1yp1OfNFaxU4IrqNq9i9Fw_NpOKcMNC2urZVnIkpyN-qFGPRAuKs1JIFMA5b4YQQRqX1fYkZ7JQ2xrK_28PFq4fEuHfVAgOE8DiQYyuDOe7id0eKpBCrSq72F5lILMR40RpW6aJ5Icof0IFvRUE2McFoXYDJK5Xj97hehzQryZMSZ8R7euDMLtEPfhdJwPvYcleJSf-6e6WcqZ59H0ePAuejdDohzFinfAFHbvZoRdgsGoJ9y0hNAPIr4bnRHQrFdfWgTIIF5-UxMRNTX1bcAD5kcsmN4NyV1Idp9Gqg_VorsTviZr1fIfv-Y-3LFcYn4Au5bvETqjHYXVuHQqS2oNGFJB4cnStr3atgZI12O7icP6HStbo49jve2MGkRQ6tScWRewpowJBlh7M9_gE3gU9sQtnpTTfXPnQVDUHNjui8X219WZFXyF0q-6qsRYBQDgImheKiWX0oCVJ9IlGIylbuqD7eWP0LdscAi5W2KqLaTcZOUWev9I_YOuC-xrPUImb7K1lA52gziul66u6GnAuYHiicR7vxkyYJ48UpiDCG3uUdr2317CF34voHzHD28ulsreLNxo7jvEvYBugpe3LqoIdZ4UtA2kwICFjOg3ddMj5QL7ZtkdJGRmtjmiSF_W40?></g></svg>