<svg xmlns="http://www.w3.org/2000/svg" xmlns:xlink="http://www.w3.org/1999/xlink" contentStyleType="text/css" height="664px" preserveAspectRatio="none" style="width:2019px;height:664px;background:#FFFFFF;" version="1.1" viewBox="0 0 2019 664" width="2019px" zoomAndPan="magnify"><title>ExpenseFlow - Data flow diagram (level 1)</title><defs/><g><text fill="#000000" font-family="DejaVu Sans" font-size="14" font-weight="bold" lengthAdjust="spacing" textLength="334.0039" x="835.7344" y="22.9951">ExpenseFlow - Data flow diagram (level 1)</text><!--entity E--><g id="elem_E"><rect fill="#F1F1F1" height="33.9688" rx="5" ry="5" style="stroke:#181818;stroke-width:0.5;" width="79.4316" x="7" y="376.627"/><text fill="#000000" font-family="DejaVu Sans" font-size="12" lengthAdjust="spacing" textLength="59.4316" x="17" y="397.7656">Employee</text></g><!--entity M--><g id="elem_M"><rect fill="#F1F1F1" height="33.9688" rx="5" ry="5" style="stroke:#181818;stroke-width:0.5;" width="72.5996" x="10" y="564.627"/><text fill="#000000" font-family="DejaVu Sans" font-size="12" lengthAdjust="spacing" textLength="52.5996" x="20" y="585.7656">Manager</text></g><!--entity A--><g id="elem_A"><rect fill="#F1F1F1" height="33.9688" rx="5" ry="5" style="stroke:#181818;stroke-width:0.5;" width="58.4551" x="1299" y="127.627"/><text fill="#000000" font-family="DejaVu Sans" font-size="12" lengthAdjust="spacing" textLength="38.4551" x="1309" y="148.7656">Admin</text></g><!--entity MAIL--><g id="elem_MAIL"><rect fill="#F1F1F1" height="33.9688" rx="5" ry="5" style="stroke:#181818;stroke-width:0.5;" width="90.1074" x="634" y="111.627"/><text fill="#000000" font-family="DejaVu Sans" font-size="12" lengthAdjust="spacing" textLength="70.1074" x="644" y="132.7656">Email inbox</text></g><g id="elem_P1"><ellipse cx="362.3272" cy="147.6924" fill="#F1F1F1" rx="65.8272" ry="15.5654" style="stroke:#181818;stroke-width:0.5;"/><text fill="#000000" font-family="DejaVu Sans" font-size="12" lengthAdjust="spacing" textLength="92.4551" x="316.0996" y="149.8467">1. Authenticate</text></g><g id="elem_P2"><ellipse cx="362.3188" cy="325.3907" fill="#F1F1F1" rx="79.3188" ry="18.2638" style="stroke:#181818;stroke-width:0.5;"/><text fill="#000000" font-family="DejaVu Sans" font-size="12" lengthAdjust="spacing" textLength="123.7207" x="300.4585" y="327.545">2. Manage expenses</text></g><g id="elem_P3"><ellipse cx="362.6151" cy="581.85" fill="#F1F1F1" rx="76.6151" ry="17.723" style="stroke:#181818;stroke-width:0.5;"/><text fill="#000000" font-family="DejaVu Sans" font-size="12" lengthAdjust="spacing" textLength="117.6094" x="303.8104" y="584.0043">3. Decide expenses</text></g><g id="elem_P4"><ellipse cx="970.8299" cy="506.4929" fill="#F1F1F1" rx="79.8299" ry="18.366" style="stroke:#181818;stroke-width:0.5;"/><text fill="#000000" font-family="DejaVu Sans" font-size="12" lengthAdjust="spacing" textLength="124.8691" x="908.3953" y="508.6472">4. Report and export</text></g><g id="elem_P5"><ellipse cx="1722.8841" cy="185.7038" fill="#F1F1F1" rx="60.8841" ry="14.5768" style="stroke:#181818;stroke-width:0.5;"/><text fill="#000000" font-family="DejaVu Sans" font-size="12" lengthAdjust="spacing" textLength="80.3262" x="1682.721" y="187.8581">5. Administer</text></g><g id="elem_P6"><ellipse cx="679.1156" cy="216.5243" fill="#F1F1F1" rx="44.6156" ry="12.8974" style="stroke:#181818;stroke-width:0.5;"/><text fill="#000000" font-family="DejaVu Sans" font-size="12" lengthAdjust="spacing" textLength="46.7344" x="653.8788" y="219.1233">6. Audit</text></g><!--entity D1--><g id="elem_D1"><path d="M1861,97.127 C1861,87.127 1923.5117,87.127 1923.5117,87.127 C1923.5117,87.127 1986.0234,87.127 1986.0234,97.127 L1986.0234,120.0957 C1986.0234,130.0957 1923.5117,130.0957 1923.5117,130.0957 C1923.5117,130.0957 1861,130.0957 1861,120.0957 L1861,97.127 " fill="#F1F1F1" style="stroke:#181818;stroke-width:0.5;"/><path d="M1861,97.127 C1861,107.127 1923.5117,107.127 1923.5117,107.127 C1923.5117,107.127 1986.0234,107.127 1986.0234,97.127 " fill="none" style="stroke:#181818;stroke-width:0.5;"/><text fill="#000000" font-family="DejaVu Sans" font-size="12" lengthAdjust="spacing" textLength="105.0234" x="1871" y="122.2656">D1 users / tokens</text></g><!--entity D2--><g id="elem_D2"><path d="M1845,276.127 C1845,266.127 1923.7363,266.127 1923.7363,266.127 C1923.7363,266.127 2002.4727,266.127 2002.4727,276.127 L2002.4727,299.0957 C2002.4727,309.0957 1923.7363,309.0957 1923.7363,309.0957 C1923.7363,309.0957 1845,309.0957 1845,299.0957 L1845,276.127 " fill="#F1F1F1" style="stroke:#181818;stroke-width:0.5;"/><path d="M1845,276.127 C1845,286.127 1923.7363,286.127 1923.7363,286.127 C1923.7363,286.127 2002.4727,286.127 2002.4727,276.127 " fill="none" style="stroke:#181818;stroke-width:0.5;"/><text fill="#000000" font-family="DejaVu Sans" font-size="12" lengthAdjust="spacing" textLength="137.4727" x="1855" y="301.2656">D2 projects / members</text></g><!--entity D3--><g id="elem_D3"><path d="M630,570.127 C630,560.127 678.833,560.127 678.833,560.127 C678.833,560.127 727.666,560.127 727.666,570.127 L727.666,593.0957 C727.666,603.0957 678.833,603.0957 678.833,603.0957 C678.833,603.0957 630,603.0957 630,593.0957 L630,570.127 " fill="#F1F1F1" style="stroke:#181818;stroke-width:0.5;"/><path d="M630,570.127 C630,580.127 678.833,580.127 678.833,580.127 C678.833,580.127 727.666,580.127 727.666,570.127 " fill="none" style="stroke:#181818;stroke-width:0.5;"/><text fill="#000000" font-family="DejaVu Sans" font-size="12" lengthAdjust="spacing" textLength="77.666" x="640" y="595.2656">D3 expenses</text></g><!--entity D4--><g id="elem_D4"><path d="M893.5,130.127 C893.5,120.127 971.1436,120.127 971.1436,120.127 C971.1436,120.127 1048.7871,120.127 1048.7871,130.127 L1048.7871,153.0957 C1048.7871,163.0957 971.1436,163.0957 971.1436,163.0957 C971.1436,163.0957 893.5,163.0957 893.5,153.0957 L893.5,130.127 " fill="#F1F1F1" style="stroke:#181818;stroke-width:0.5;"/><path d="M893.5,130.127 C893.5,140.127 971.1436,140.127 971.1436,140.127 C971.1436,140.127 1048.7871,140.127 1048.7871,130.127 " fill="none" style="stroke:#181818;stroke-width:0.5;"/><text fill="#000000" font-family="DejaVu Sans" font-size="12" lengthAdjust="spacing" textLength="135.2871" x="903.5" y="155.2656">D4 audit_logs (Mongo)</text></g><!--entity D5--><g id="elem_D5"><path d="M1229,495.127 C1229,485.127 1328.0127,485.127 1328.0127,485.127 C1328.0127,485.127 1427.0254,485.127 1427.0254,495.127 L1427.0254,518.0957 C1427.0254,528.0957 1328.0127,528.0957 1328.0127,528.0957 C1328.0127,528.0957 1229,528.0957 1229,518.0957 L1229,495.127 " fill="#F1F1F1" style="stroke:#181818;stroke-width:0.5;"/><path d="M1229,495.127 C1229,505.127 1328.0127,505.127 1328.0127,505.127 C1328.0127,505.127 1427.0254,505.127 1427.0254,495.127 " fill="none" style="stroke:#181818;stroke-width:0.5;"/><text fill="#000000" font-family="DejaVu Sans" font-size="12" lengthAdjust="spacing" textLength="178.0254" x="1239" y="520.2656">D5 report_snapshots (Mongo)</text></g><!--link E to P1--><g id="link_E_P1"><path d="M63.43,376.397 C76.89,362.177 96.98,341.797 116,325.627 C193.82,259.477 289.6666,194.6632 333.9566,165.5432 " fill="none" id="E-to-P1" style="stroke:#555555;stroke-width:1.0;"/><polygon fill="#555555" points="338.97,162.247,329.2523,163.8491,334.7921,164.9938,333.6473,170.5336,338.97,162.247" style="stroke:#555555;stroke-width:1.0;"/><text fill="#000000" font-family="DejaVu Sans" font-size="12" lengthAdjust="spacing" textLength="66.498" x="151.5" y="221.7656">credentials</text></g><!--link P1 to D1--><g id="link_P1_D1"><path d="M392.21,133.717 C446.62,108.687 569.05,58.627 678,58.627 C678,58.627 678,58.627 1724,58.627 C1773.58,58.627 1822.3855,71.5277 1861.7155,85.0377 " fill="none" id="P1-to-D1" style="stroke:#555555;stroke-width:1.0;"/><polygon fill="#555555" points="1867.39,86.987,1860.1777,80.2801,1862.6612,85.3626,1857.5787,87.8461,1867.39,86.987" style="stroke:#555555;stroke-width:1.0;"/><text fill="#000000" font-family="DejaVu Sans" font-size="12" lengthAdjust="spacing" textLength="116.373" x="1082" y="55.7656">verify, store tokens</text></g><!--link P1 to MAIL--><g id="link_P1_MAIL"><path d="M426.77,143.807 C488.11,140.097 573.6109,134.9286 627.6009,131.6686 " fill="none" id="P1-to-MAIL" style="stroke:#555555;stroke-width:1.0;"/><polygon fill="#555555" points="633.59,131.307,624.3653,127.8567,628.5991,131.6083,624.8474,135.8421,633.59,131.307" style="stroke:#555555;stroke-width:1.0;"/><text fill="#000000" font-family="DejaVu Sans" font-size="12" lengthAdjust="spacing" textLength="126.7969" x="473" y="131.7656">activation / reset link</text></g><!--link E to P2--><g id="link_E_P2"><path d="M86,385.287 C140.45,373.497 234.5059,353.1266 297.8759,339.4066 " fill="none" id="E-to-P2" style="stroke:#555555;stroke-width:1.0;"/><polygon fill="#555555" points="303.74,338.137,294.0974,336.132,298.8532,339.195,295.7902,343.9508,303.74,338.137" style="stroke:#555555;stroke-width:1.0;"/><text fill="#000000" font-family="DejaVu Sans" font-size="12" lengthAdjust="spacing" textLength="135.4922" x="117" y="345.7656">expense data, CSV file</text></g><!--link P2 to D2--><g id="link_P2_D2"><path d="M424.12,313.917 C487.26,302.747 589.18,287.627 678,287.627 C678,287.627 678,287.627 1724,287.627 C1763.8,287.627 1802.1,287.627 1838.73,287.627 " fill="none" id="P2-to-D2" style="stroke:#555555;stroke-width:1.0;"/><polygon fill="#555555" points="1844.73,287.627,1835.73,283.627,1839.73,287.627,1835.73,291.627,1844.73,287.627" style="stroke:#555555;stroke-width:1.0;"/><text fill="#000000" font-family="DejaVu Sans" font-size="12" lengthAdjust="spacing" textLength="114.4512" x="1083" y="284.7656">check membership</text></g><!--link P2 to D3--><g id="link_P2_D3"><path d="M391.69,342.887 C413.13,355.467 443.66,372.227 472,383.627 C526.82,405.687 554.73,381.637 600,419.627 C644.36,456.847 664.0131,519.3471 672.2231,554.1671 " fill="none" id="P2-to-D3" style="stroke:#555555;stroke-width:1.0;"/><polygon fill="#555555" points="673.6,560.007,675.4278,550.3292,672.4525,555.1404,667.6413,552.1651,673.6,560.007" style="stroke:#555555;stroke-width:1.0;"/><text fill="#000000" font-family="DejaVu Sans" font-size="12" lengthAdjust="spacing" textLength="116.25" x="478" y="380.7656">drafts, submissions</text></g><!--link M to P3--><g id="link_M_P3"><path d="M83.21,581.627 C132.24,581.627 215.61,581.627 279.86,581.627 " fill="none" id="M-to-P3" style="stroke:#555555;stroke-width:1.0;"/><polygon fill="#555555" points="285.86,581.627,276.86,577.627,280.86,581.627,276.86,585.627,285.86,581.627" style="stroke:#555555;stroke-width:1.0;"/><text fill="#000000" font-family="DejaVu Sans" font-size="12" lengthAdjust="spacing" textLength="95.3555" x="137" y="578.7656">approve / reject</text></g><!--link P3 to D3--><g id="link_P3_D3"><path d="M439.23,581.627 C498.48,581.627 573.08,581.627 623.82,581.627 " fill="none" id="P3-to-D3" style="stroke:#555555;stroke-width:1.0;"/><polygon fill="#555555" points="629.82,581.627,620.82,577.627,624.82,581.627,620.82,585.627,629.82,581.627" style="stroke:#555555;stroke-width:1.0;"/><text fill="#000000" font-family="DejaVu Sans" font-size="12" lengthAdjust="spacing" textLength="84.8496" x="494" y="578.7656">status change</text></g><!--link P3 to D2--><g id="link_P3_D2"><path d="M401.54,596.807 C459.98,618.717 575.84,656.627 678,656.627 C678,656.627 678,656.627 1724,656.627 C1882.76,656.627 1914.6401,394.4093 1920.7201,315.3193 " fill="none" id="P3-to-D2" style="stroke:#555555;stroke-width:1.0;"/><polygon fill="#555555" points="1921.18,309.337,1916.5019,318.0039,1920.7968,314.3222,1924.4784,318.6171,1921.18,309.337" style="stroke:#555555;stroke-width:1.0;"/><text fill="#000000" font-family="DejaVu Sans" font-size="12" lengthAdjust="spacing" textLength="87.2637" x="1096.5" y="653.7656">spent (trigger)</text></g><!--link A to P5--><g id="link_A_P5"><path d="M1357.26,147.577 C1421.94,154.327 1575.7124,170.3644 1660.7324,179.2344 " fill="none" id="A-to-P5" style="stroke:#555555;stroke-width:1.0;"/><polygon fill="#555555" points="1666.7,179.857,1658.1636,174.9447,1661.727,179.3381,1657.3335,182.9015,1666.7,179.857" style="stroke:#555555;stroke-width:1.0;"/><text fill="#000000" font-family="DejaVu Sans" font-size="12" lengthAdjust="spacing" textLength="173.0918" x="1458" y="156.7656">users, departments, projects</text></g><!--link P5 to D1--><g id="link_P5_D1"><path d="M1755.89,173.257 C1785.81,161.647 1825.5963,146.2173 1861.4463,132.3073 " fill="none" id="P5-to-D1" style="stroke:#555555;stroke-width:1.0;"/><polygon fill="#555555" points="1867.04,130.137,1857.2025,129.6634,1862.3786,131.9456,1860.0964,137.1217,1867.04,130.137" style="stroke:#555555;stroke-width:1.0;"/></g><!--link P5 to D2--><g id="link_P5_D2"><path d="M1749.54,198.757 C1782.63,215.757 1835.4231,242.8851 1875.0731,263.2551 " fill="none" id="P5-to-D2" style="stroke:#555555;stroke-width:1.0;"/><polygon fill="#555555" points="1880.41,265.997,1874.2325,258.3263,1875.9626,263.7121,1870.5768,265.4422,1880.41,265.997" style="stroke:#555555;stroke-width:1.0;"/></g><!--link E to P4--><g id="link_E_P4"><path d="M86.12,398.007 C160.69,406.437 329.7,425.437 472,440.627 C644.82,459.077 689.66,451.517 861,480.627 C879.7,483.807 894.1423,486.9093 912.0623,491.2993 " fill="none" id="E-to-P4" style="stroke:#555555;stroke-width:1.0;"/><polygon fill="#555555" points="917.89,492.727,910.1003,486.7004,913.0336,491.5372,908.1967,494.4706,917.89,492.727" style="stroke:#555555;stroke-width:1.0;"/><text fill="#000000" font-family="DejaVu Sans" font-size="12" lengthAdjust="spacing" textLength="42.5742" x="515" y="437.7656">criteria</text></g><!--link P4 to E--><g id="link_P4_E"><path d="M891.13,508.327 C738.37,509.587 392.85,502.497 116,423.627 C104.51,420.357 97.9195,418.0013 87.1595,413.2013 " fill="none" id="P4-to-E" style="stroke:#555555;stroke-width:1.0;"/><polygon fill="#555555" points="81.68,410.757,88.2697,418.0765,86.2463,412.7939,91.5288,410.7705,81.68,410.757" style="stroke:#555555;stroke-width:1.0;"/><text fill="#000000" font-family="DejaVu Sans" font-size="12" lengthAdjust="spacing" textLength="107.8711" x="482.5" y="485.7656">CSV / XLSX / JSON</text></g><!--link D3 to P4--><g id="link_D3_P4"><path d="M728.16,574.917 C764.93,569.237 816.66,560.027 861,547.627 C885.05,540.897 905.6932,533.3655 926.3832,525.0455 " fill="none" id="D3-to-P4" style="stroke:#555555;stroke-width:1.0;"/><polygon fill="#555555" points="931.95,522.807,922.1075,522.4536,927.311,524.6724,925.0922,529.876,931.95,522.807" style="stroke:#555555;stroke-width:1.0;"/><text fill="#000000" font-family="DejaVu Sans" font-size="12" lengthAdjust="spacing" textLength="101.7363" x="759" y="544.7656">aggregated rows</text></g><!--link P4 to D5--><g id="link_P4_D5"><path d="M1051.23,506.627 C1103.64,506.627 1166.75,506.627 1222.68,506.627 " fill="none" id="P4-to-D5" style="stroke:#555555;stroke-width:1.0;"/><polygon fill="#555555" points="1228.68,506.627,1219.68,502.627,1223.68,506.627,1219.68,510.627,1228.68,506.627" style="stroke:#555555;stroke-width:1.0;"/><text fill="#000000" font-family="DejaVu Sans" font-size="12" lengthAdjust="spacing" textLength="94.2539" x="1093" y="503.7656">saved snapshot</text></g><!--link P1 to P6--><g id="link_P1_P6"><path d="M411.27,158.107 C475.02,172.097 580.5693,195.2514 637.0993,207.6514 " fill="none" id="P1-to-P6" style="stroke:#555555;stroke-width:1.0;"/><polygon fill="#555555" points="642.96,208.937,635.026,203.1015,638.0761,207.8657,633.312,210.9157,642.96,208.937" style="stroke:#555555;stroke-width:1.0;"/><text fill="#000000" font-family="DejaVu Sans" font-size="12" lengthAdjust="spacing" textLength="40.4297" x="516" y="169.7656">events</text></g><!--link P2 to P6--><g id="link_P2_P6"><path d="M392.1,308.207 C413.48,295.787 443.78,279.427 472,268.627 C529.19,246.747 592.9391,232.516 634.8291,224.416 " fill="none" id="P2-to-P6" style="stroke:#555555;stroke-width:1.0;"/><polygon fill="#555555" points="640.72,223.277,631.1243,221.0583,635.8109,224.2262,632.6431,228.9128,640.72,223.277" style="stroke:#555555;stroke-width:1.0;"/><text fill="#000000" font-family="DejaVu Sans" font-size="12" lengthAdjust="spacing" textLength="40.4297" x="516" y="228.7656">events</text></g><!--link P3 to P6--><g id="link_P3_P6"><path d="M368.4,564.097 C380.27,524.327 413.94,425.957 472,364.627 C517.03,317.067 547.55,330.847 600,291.627 C625.88,272.277 648.1305,249.4951 662.6205,233.7251 " fill="none" id="P3-to-P6" style="stroke:#555555;stroke-width:1.0;"/><polygon fill="#555555" points="666.68,229.307,657.6452,233.2278,663.297,232.9887,663.5361,238.6405,666.68,229.307" style="stroke:#555555;stroke-width:1.0;"/><text fill="#000000" font-family="DejaVu Sans" font-size="12" lengthAdjust="spacing" textLength="40.4297" x="516" y="288.7656">events</text></g><!--link P5 to P6--><g id="link_P5_P6"><path d="M1662.17,187.407 C1472.58,193.047 893.9073,210.2583 729.4473,215.1583 " fill="none" id="P5-to-P6" style="stroke:#555555;stroke-width:1.0;"/><polygon fill="#555555" points="723.45,215.337,732.5651,219.0671,728.4478,215.188,732.3269,211.0707,723.45,215.337" style="stroke:#555555;stroke-width:1.0;"/><text fill="#000000" font-family="DejaVu Sans" font-size="12" lengthAdjust="spacing" textLength="40.4297" x="1120" y="197.7656">events</text></g><!--link P6 to D4--><g id="link_P6_D4"><path d="M707.96,206.597 C722.74,201.477 741.24,195.347 758,190.627 C802.36,178.137 846.7288,167.71 887.1588,158.86 " fill="none" id="P6-to-D4" style="stroke:#555555;stroke-width:1.0;"/><polygon fill="#555555" points="893.02,157.577,883.3728,155.594,888.1356,158.6461,885.0835,163.4089,893.02,157.577" style="stroke:#555555;stroke-width:1.0;"/></g><!--link D4 to A--><g id="link_D4_A"><path d="M1048.59,142.277 C1127.07,142.937 1238.9402,143.8866 1292.5902,144.3366 " fill="none" id="D4-to-A" style="stroke:#555555;stroke-width:1.0;"/><polygon fill="#555555" points="1298.59,144.387,1289.6239,140.3116,1293.5902,144.345,1289.5568,148.3113,1298.59,144.387" style="stroke:#555555;stroke-width:1.0;"/><text fill="#000000" font-family="DejaVu Sans" font-size="12" lengthAdjust="spacing" textLength="84.1699" x="1098" y="139.7656">audit log view</text></g><!--SRC=[PPDDZzem48Rl_XNJFO44hCW7XnugHGsLMYqjAj9gRyWaGt1nuiXsmlBlEuu92RidpBoFv-Frv8keCjda27jZhn8NeYabatYqO1LeKPmiv49ZPeMgc1LM8gpVQwmC_f3g0dD8kULmTETSy4Bp4YOIMvImd3BcBlAge4jFwxAMwehu1Dp0UgniUCKBr9sm6Gj9Negg2oUFcRYG8Ag3UlTtafylZ3K6Csv8NYuWQUm9AoioRdszxNBGWmNuYe1-4EEHO4321QIOYVmZ4Wv8j82_M2jjWLUvm-ZeeMY0Och5pI2ClSstZGTrvHhDnUtQYh6Sh3nqKhe4mhI1Ptg6CtNGCUboZ0HGQ_MFR75KYUM1U8y5Oonyd24Dns84t7MmbwemCDcegb1JZqLZB0RTpRet5Q_DITaFSCpO6kRpR-GpV8LCO-xSvz8m2hXuwk8jQd6ypi1OfV4sLm-uDoI4qvwrtEqQpQJHe0KfgdEVFI3aDWsuzcRmVVSAHo6HaTOLSaXsmkpSMt8IzLqCISmrFrf3NJI7KXX3fGpR-FHEvZMvsc9NtfdBA7g_QootZQ7yj8buLrn9GqrPc5ZwOcYLfopn6MEIkeUSGOurrxOaZFxqByU8yFxSJq4_RDHPAMXp16TfE0HvKMWiQBLpqEf2EI9_qnKplALm_qozj2R5EVKCRo-xD_hvjVlpkxT-ktAkjgwntgY7KFWv57yEhNmF4KjzoSGrwdOBQBUW5NZv3m00]--></g></svg>